# xmcd CD database file
#
# Track frame offsets:
#	150
#	12040
#	22420
#	33188
#	43194
#	52723
#	65477
#	76929
#	89712
#	102496
#	114367
#	123805
#
# Disc length: 1774 seconds
#
# Revision: 0
# Processed by: cddbd v1.5PL3 Copyright (c) Steve Scherf et al.
# Submitted via: CDex 1.51
#
DISCID=9306ec0c
DTITLE=Fausto Papetti - Temas para la intimidad-CD2
DYEAR=1998
DGENRE=Jazz
TTITLE0=Strangers in the night
TTITLE1=Danny boy
TTITLE2=Summertime
TTITLE3=Ol'man river
TTITLE4=Laura
TTITLE5=St. louis blues
TTITLE6=Somwhere my love
TTITLE7=The night and obliven
TTITLE8=Se vero amore
TTITLE9=born free
TTITLE10=Saturday night philosophen
TTITLE11=Tasmin's theme
EXTD=YEAR: 1998
EXTT0=
EXTT1=
EXTT2=
EXTT3=
EXTT4=
EXTT5=
EXTT6=
EXTT7=
EXTT8=
EXTT9=
EXTT10=
EXTT11=
PLAYORDER=
